<?xml version="1.0" standalone="no"?>
<svg viewBox="0 0 200 200" xmlns="http://www.w3.org/2000/svg">
	<mask id="mask" mask-type="alpha">
		<path d="M51.7,-62.5C65.3,-50.2,73.4,-32.3,78,-12.8C82.6,6.7,83.6,27.8,75.2,44.4C66.8,61.1,48.9,73.3,30.1,78.1C11.3,83,-8.6,80.5,-26.7,73.7C-44.8,67,-61.3,55.9,-70.3,40.5C-79.3,25.1,-80.8,5.3,-76.5,-12.5C-72.1,-30.2,-61.9,-45.9,-48.1,-58.2C-34.4,-70.5,-17.2,-79.4,0.9,-80.5C19,-81.6,38.1,-74.8,51.7,-62.5Z" transform="translate(100 100)" />
	</mask>
	<g mask="url(#mask)">
		<path d="M51.7,-62.5C65.3,-50.2,73.4,-32.3,78,-12.8C82.6,6.7,83.6,27.8,75.2,44.4C66.8,61.1,48.9,73.3,30.1,78.1C11.3,83,-8.6,80.5,-26.7,73.7C-44.8,67,-61.3,55.9,-70.3,40.5C-79.3,25.1,-80.8,5.3,-76.5,-12.5C-72.1,-30.2,-61.9,-45.9,-48.1,-58.2C-34.4,-70.5,-17.2,-79.4,0.9,-80.5C19,-81.6,38.1,-74.8,51.7,-62.5Z" transform="translate(100 100)" />
		<image xlink:href=""/>
	</g>
</svg>
